<svg width="96" height="96" viewBox="0 0 96 96" xmlns="http://www.w3.org/2000/svg" xmlns:xlink="http://www.w3.org/1999/xlink" xml:space="preserve" overflow="hidden"><g transform="translate(-793 -550)"><path d="M822 576C823.7 576 825 574.7 825 573L825 567C825 565.3 823.7 564 822 564 820.3 564 819 565.3 819 567L819 573C819 574.7 820.3 576 822 576Z"/><path d="M813 618 829 618 829 626 813 626 813 618ZM813 606 829 606 829 614 813 614 813 606ZM813 594 829 594 829 602 813 602 813 594ZM849 594 849 602 833 602 833 594 849 594ZM869 594 869 602 853 602 853 594 869 594ZM869 614 853 614 853 606 869 606 869 614ZM869 626 853 626 853 618 869 618 869 626ZM833 614 833 606 849 606 849 614 833 614ZM833 626 833 618 849 618 849 626 833 626ZM807 632 875 632 875 588 807 588 807 632Z"/><path d="M860 576C861.7 576 863 574.7 863 573L863 567C863 565.3 861.7 564 860 564 858.3 564 857 565.3 857 567L857 573C857 574.7 858.3 576 860 576Z"/><path d="M867 570 867 573C867 576.9 863.9 580 860 580 856.1 580 853 576.9 853 573L853 570 829 570 829 573C829 576.9 825.9 580 822 580 818.1 580 815 576.9 815 573L815 570 807 570 807 584 875 584 875 570 867 570Z"/></g></svg>