<svg width="96" height="96" viewBox="0 0 96 96" xmlns="http://www.w3.org/2000/svg" xmlns:xlink="http://www.w3.org/1999/xlink" xml:space="preserve" overflow="hidden"><g transform="translate(-223 -550)"><path d="M287.3 619.1C285.8 617.6 284.9 615.5 284.9 613.4L284.3 612.8C275.2 618.4 263.6 617.8 255.1 611.3L254.8 611.5C253.7 612.3 253 613.6 253 615L253 624 289 624 289 620.8 287.3 619.1Z"/><path d="M296.5 589.5C301.4 588.7 304.7 584 303.9 579.1 303.1 574.2 298.4 570.9 293.5 571.7 292.1 571.9 290.8 572.5 289.7 573.3 293.8 577.7 296.2 583.4 296.5 589.5Z"/><path d="M311.2 597.4C308.6 595.4 305.6 593.9 302.4 593.2 300.5 592.6 298.5 592.3 296.5 592.1 296.3 596.4 295 600.6 292.7 604.3L293.3 604.9C295.4 604.9 297.5 605.8 299 607.3L301.7 610 313 610 313 601C313 599.6 312.4 598.2 311.2 597.4Z"/><path d="M306.4 618.9 297 609.4C295.7 608.2 294 607.6 292.2 608L288.8 604.7C291.9 600.7 293.5 595.9 293.5 590.9 293.6 578.3 283.4 568 270.7 567.9 258 567.8 247.9 578 247.9 590.6 247.9 603.2 258 613.5 270.7 613.6 275.7 613.6 280.6 612 284.7 608.9L288.1 612.2C287.8 613.9 288.3 615.7 289.5 617L299 626.5C301 628.6 304.4 628.7 306.5 626.7 308.6 624.7 308.7 621.3 306.7 619.2 306.6 619.1 306.5 619 306.4 618.9L306.4 618.9ZM270.8 572.6C280.9 572.6 289 580.7 289 590.8 289 595.1 287.5 599.3 284.7 602.5 282.8 601.6 280.9 600.9 278.9 600.4 276.2 599.6 273.4 599.1 270.6 599.1 267.8 599.1 265 599.6 262.3 600.4 260.4 600.9 258.6 601.6 256.9 602.6 250.4 595 251.3 583.5 258.9 577 262.2 574.1 266.4 572.6 270.8 572.6Z"/><path d="M280.7 586.8C280.7 592.378 276.178 596.9 270.6 596.9 265.022 596.9 260.5 592.378 260.5 586.8 260.5 581.222 265.022 576.7 270.6 576.7 276.178 576.7 280.7 581.222 280.7 586.8Z"/><path d="M245 592.1C243.2 592.3 241.4 592.6 239.6 593.2 236.5 594.1 233.5 595.6 230.8 597.4 229.6 598.2 229 599.6 229 601L229 610 250.6 610C251 609.4 251.5 608.9 252.1 608.5 247.8 604 245.3 598.2 245 592.1Z"/><path d="M245 589.4C245.3 583.3 247.8 577.6 252 573.1 247.9 570.3 242.3 571.4 239.5 575.6 236.7 579.8 237.8 585.3 242 588.1 242.9 588.7 243.9 589.1 245 589.4Z"/></g></svg>