<svg width="96" height="96" viewBox="0 0 96 96" xmlns="http://www.w3.org/2000/svg" xmlns:xlink="http://www.w3.org/1999/xlink" xml:space="preserve" overflow="hidden"><g transform="translate(-490 -549)"><path d="M549.3 586.3C545.1 586.3 541.8 582.9 541.8 578.8 541.8 574.7 545.2 571.3 549.3 571.3 553.5 571.3 556.8 574.7 556.8 578.8 556.8 582.9 553.4 586.3 549.3 586.3ZM566.2 574.1C565.8 572.7 565.3 571.4 564.6 570.2L566.2 565.5 562.6 561.9 557.9 563.5C556.7 562.8 555.4 562.3 554 561.9L551.8 557.5 546.8 557.5 544.6 561.9C543.2 562.3 541.9 562.8 540.7 563.5L536 561.9 532.4 565.5 534 570.2C533.3 571.4 532.8 572.7 532.4 574.1L528 576.3 528 581.3 532.4 583.5C532.8 584.9 533.3 586.2 534 587.4L532.4 592.1 535.9 595.6 540.6 594C541.8 594.7 543.1 595.2 544.5 595.6L546.7 600 551.7 600 553.9 595.6C555.3 595.2 556.6 594.7 557.8 594L562.5 595.6 566.1 592.1 564.5 587.4C565.2 586.2 565.8 584.8 566.2 583.5L570.6 581.3 570.6 576.3 566.2 574.1Z"/><path d="M526.7 622.7C522.5 622.7 519.2 619.3 519.2 615.2 519.2 611 522.6 607.7 526.7 607.7 530.9 607.7 534.2 611.1 534.2 615.2 534.2 619.3 530.9 622.7 526.7 622.7L526.7 622.7ZM542 606.6 543.6 601.9 540 598.3 535.3 599.9C534.1 599.2 532.7 598.7 531.4 598.3L529.2 593.9 524.2 593.9 522 598.3C520.6 598.7 519.3 599.2 518.1 599.9L513.4 598.3 509.9 601.8 511.4 606.5C510.7 607.7 510.2 609.1 509.8 610.4L505.4 612.6 505.4 617.6 509.8 619.8C510.2 621.2 510.7 622.5 511.4 623.7L509.9 628.4 513.4 631.9 518.1 630.4C519.3 631.1 520.6 631.6 522 632L524.2 636.4 529.2 636.4 531.4 632C532.8 631.6 534.1 631.1 535.3 630.4L540 632 543.5 628.4 542 623.8C542.7 622.6 543.2 621.3 543.6 619.9L548 617.7 548 612.7 543.6 610.5C543.2 609.1 542.7 607.8 542 606.6Z"/></g></svg>