<svg width="96" height="96" viewBox="0 0 96 96" xmlns="http://www.w3.org/2000/svg" xmlns:xlink="http://www.w3.org/1999/xlink" xml:space="preserve" overflow="hidden"><g transform="translate(-1096 -560)"><path d="M1119 580 1130 580 1130 586 1158 586 1158 580 1169 580 1169 642 1119 642 1119 580ZM1144.1 572C1145.7 572 1147 573.4 1147 575 1147 576.7 1145.7 578 1144 578 1142.3 578 1141 576.7 1141 575 1141 573.3 1142.3 572 1144.1 572ZM1113 578 1113 644C1113 646.2 1114.8 648 1117 648L1171 648C1173.2 648 1175 646.2 1175 644L1175 578C1175 575.8 1173.2 574 1171 574L1154 574 1154 572C1154 569.8 1152.2 568 1150 568L1138 568C1135.8 568 1134 569.8 1134 572L1134 574 1117 574C1114.8 574 1113 575.8 1113 578Z"/><path d="M1125 594 1142 594 1142 598 1125 598Z"/><path d="M1125 606 1142 606 1142 610 1125 610Z"/><path d="M1125 618 1142 618 1142 622 1125 622Z"/><path d="M1125 630 1142 630 1142 634 1125 634Z"/><path d="M1148.9 595.8 1151 593.7 1153.6 596.3 1160.2 589.7 1162.3 591.8 1153.6 600.5Z"/><path d="M1148.9 607.8 1151 605.7 1153.6 608.3 1160.2 601.7 1162.3 603.8 1153.6 612.5Z"/><path d="M1148.9 619.8 1151 617.7 1153.6 620.3 1160.2 613.7 1162.3 615.8 1153.6 624.5Z"/><path d="M1148.9 631.8 1151 629.7 1153.6 632.3 1160.2 625.7 1162.3 627.8 1153.6 636.5Z"/></g></svg>